<?xml version="1.0" standalone="no"?><!DOCTYPE svg PUBLIC "-//W3C//DTD SVG 1.1//EN" "http://www.w3.org/Graphics/SVG/1.1/DTD/svg11.dtd"><svg t="1568091438955" class="icon" viewBox="0 0 1024 1024" version="1.1" xmlns="http://www.w3.org/2000/svg" p-id="2618" xmlns:xlink="http://www.w3.org/1999/xlink" width="32" height="32"><defs><style type="text/css"></style></defs><path d="M836 418h-13.9c-6-73.3-37.5-141.4-90.1-194-58.8-58.8-136.9-91.2-220.1-91.2s-161.2 32.4-220 91.2c-52.6 52.6-84 120.7-90.1 194H188c-49.6 0-90 40.4-90 90v327.3c0 49.6 40.4 90 90 90h648c49.6 0 90-40.4 90-90V508c0-49.6-40.4-90-90-90zM334.3 266.4c47.5-47.5 110.5-73.6 177.7-73.6s130.2 26.1 177.7 73.6c41.3 41.3 66.4 94.3 72.2 151.6H262.1c5.9-57.2 31-110.3 72.2-151.6zM866 835.3c0 16.5-13.5 30-30 30H188c-16.5 0-30-13.5-30-30V508c0-16.5 13.5-30 30-30h648c16.5 0 30 13.5 30 30v327.3z" p-id="2619" fill="#707070"></path><path d="M512 556.7c-33.1 0-60 26.9-60 60 0 22.2 12.1 41.6 30 52v28.5c0 16.5 13.5 30 30 30s30-13.5 30-30v-28.5c17.9-10.4 30-29.7 30-52 0-33.1-26.9-60-60-60z" p-id="2620" fill="#707070"></path></svg>